# xmcd
#
# Track frame offsets: 
#        150
#        24522
#        36935
#        54190
#        70694
#        86339
#        101950
#        124857
#        140672
#        160039
#        176780
#        196247
#
# Disc length: 2635 seconds
#
# Revision: 0
# Processed by: cddbd v1.5.2PL0 Copyright (c) Steve Scherf et al.
# Submitted via: ExactAudioCopy v0.99pb3
#
DISCID=9f0a490c
DTITLE=Ryan Hartt and The Blue Hearts - Call My Name
DYEAR=2012
DGENRE=Blues
TTITLE0=Anti-Pill Blues
TTITLE1=Love At First Sight
TTITLE2=One More Night
TTITLE3=When It Rains
TTITLE4=Call My Name
TTITLE5=I Choose The Blues
TTITLE6=Real Prince Charming
TTITLE7=KABOOM!
TTITLE8=Sleepwalkin'
TTITLE9=New Love, Old Love Part II
TTITLE10=Dartboard
TTITLE11=Love at Last Sight
EXTD=
EXTT0=
EXTT1=
EXTT2=
EXTT3=
EXTT4=
EXTT5=
EXTT6=
EXTT7=
EXTT8=
EXTT9=
EXTT10=
EXTT11=
PLAYORDER=
